P3
4 1
10
0
0
0
2
1
1
0
4
0
0
0
0
