P3
5 6
20
0
3
13
0
0
9
2
1
1
10
4
17
0
8
0
0
0
19
0
2
0
3
2
1
0
2
0
15
0
0
2
1
1
1
2
1
1
1
0
2
1
1
7
8
0
13
4
9
5
2
0
2
1
1
10
4
0
0
7
11
7
3
0
0
0
0
0
3
0
0
0
6
0
0
0
16
1
19
1
1
2
1
1
2
16
1
2
1
1
19
